<svg xmlns="http://www.w3.org/2000/svg" xmlns:xlink="http://www.w3.org/1999/xlink" id="body_1" preserveAspectRatio="xMinYMin meet" viewBox="0 0 793 1121"><defs><clipPath id="1"><path id="" clip-rule="evenodd" transform="matrix(1 0 0 1 0 0)" d="M0 841L0 -0.9200439L0 -0.9200439L595.32 -0.9200439L595.32 -0.9200439L595.32 841L595.32 841L0 841z" /></clipPath></defs><g transform="matrix(1.333333 0 0 1.333333 0 0)"><g clip-path="url(#1)"><path id="1" transform="matrix(1 0 0 -1 0 841)" d="M34.8 450.84L542.64 450.84" stroke="#000000" stroke-width="0.96" fill="none" /><path id="2" transform="matrix(1 0 0 -1 0 841)" d="M34.8 621.48L542.64 621.48" stroke="#000000" stroke-width="0.96" fill="none" /><path id="3" transform="matrix(1 0 0 -1 0 841)" d="M34.8 671.64L542.64 671.64" stroke="#000000" stroke-width="0.96" fill="none" /><path id="4" transform="matrix(1 0 0 -1 0 841)" d="M35.16 134.6401L543.12 134.6401" stroke="#000000" stroke-width="0.96" fill="none" /></g></g></svg>