<svg xmlns="http://www.w3.org/2000/svg" xmlns:xlink="http://www.w3.org/1999/xlink" id="body_2" preserveAspectRatio="xMinYMin meet" viewBox="0 0 793 1121"><defs><clipPath id="1"><path id="" clip-rule="evenodd" transform="matrix(1 0 0 1 0 0)" d="M0 841L0 -0.9200439L0 -0.9200439L595.32 -0.9200439L595.32 -0.9200439L595.32 841L595.32 841L0 841z" /></clipPath><clipPath id="2"><path id="" clip-rule="evenodd" transform="matrix(1 0 0 1 0 0)" d="M34.56 315.8799L544.32 315.8799L544.32 315.8799L544.32 318.0399L544.32 318.0399L34.56 318.0399z" /></clipPath><clipPath id="3"><path id="" clip-rule="evenodd" transform="matrix(1 0 0 1 0 0)" d="M34.56 217.24L544.32 217.24L544.32 217.24L544.32 219.4L544.32 219.4L34.56 219.4z" /></clipPath></defs><g transform="matrix(1.333333 0 0 1.333333 0 0)"><g clip-path="url(#1)"><path id="1" transform="matrix(1 0 0 -1 0 841)" d="M35.16 682.6801L543.12 682.6801" stroke="#000000" stroke-width="0.96" fill="none" /><path id="2" transform="matrix(1 0 0 -1 0 841)" d="M35.16 756.1201L543.12 756.1201" stroke="#000000" stroke-width="0.96" fill="none" /><g clip-path="url(#2)"><g transform="matrix(0.72 0 0 0.72 34.56 315.88)"><g transform="matrix(1 0 0 1 0 0)"><image x="0" y="0" xlink:href="img_05.png" width="708" height="3" /></g></g></g><g clip-path="url(#3)"><g transform="matrix(0.72 0 0 0.72 34.56 217.24)"><g transform="matrix(1 0 0 1 0 0)"><image x="0" y="0" xlink:href="img_06.png" width="708" height="3" /></g></g></g></g></g></svg>