<svg xmlns="http://www.w3.org/2000/svg" xmlns:xlink="http://www.w3.org/1999/xlink" id="body_1" preserveAspectRatio="xMinYMin meet" viewBox="0 0 793 1121"><defs><clipPath id="1"><path id="" clip-rule="evenodd" transform="matrix(1 0 0 1 0 0)" d="M0 841L0 -0.9200439L0 -0.9200439L595.32 -0.9200439L595.32 -0.9200439L595.32 841L595.32 841L0 841z" /></clipPath><clipPath id="2"><path id="" clip-rule="evenodd" transform="matrix(1 0 0 1 0 0)" d="M34.56 365.56L544.32 365.56L544.32 365.56L544.32 367.7199L544.32 367.7199L34.56 367.7199z" /></clipPath><clipPath id="3"><path id="" clip-rule="evenodd" transform="matrix(1 0 0 1 0 0)" d="M34.56 160.36L544.32 160.36L544.32 160.36L544.32 163.24L544.32 163.24L34.56 163.24z" /></clipPath><clipPath id="4"><path id="" clip-rule="evenodd" transform="matrix(1 0 0 1 0 0)" d="M456.84 70.95996L546.12 70.95996L546.12 70.95996L546.12 160.24L546.12 160.24L456.84 160.24z" /></clipPath></defs><g transform="matrix(1.333333 0 0 1.333333 0 0)"><g clip-path="url(#1)"><path id="1" transform="matrix(1 0 0 -1 0 841)" d="M34.44 635.76L542.4 635.76" stroke="#000000" stroke-width="0.96" fill="none" /><path id="2" transform="matrix(1 0 0 -1 0 841)" d="M34.44 156.36L542.4 156.36" stroke="#000000" stroke-width="0.96" fill="none" /><g clip-path="url(#2)"><g transform="matrix(0.72 0 0 0.72 34.56 365.56)"><g transform="matrix(1 0 0 1 0 0)"><image x="0" y="0" xlink:href="img_01.png" width="708" height="3" /></g></g></g><g clip-path="url(#3)"><g transform="matrix(0.72 0 0 0.72 34.56 160.36)"><g transform="matrix(1 0 0 1 0 0)"><image x="0" y="0" xlink:href="img_02.png" width="708" height="4" /></g></g></g><g clip-path="url(#4)"><g transform="matrix(0.1483056 0 0 0.1483056 456.84 70.95996)"><g transform="matrix(1 0 0 1 0 0)"><image x="0" y="0" xlink:href="img_03.png" width="602" height="602" /></g></g></g></g></g></svg>