<svg xmlns="http://www.w3.org/2000/svg" xmlns:xlink="http://www.w3.org/1999/xlink" id="body_1" preserveAspectRatio="xMinYMin meet" viewBox="0 0 793 1121"><defs><clipPath id="1"><path id="" clip-rule="evenodd" transform="matrix(1 0 0 1 0 0)" d="M0 841L0 -0.9200439L0 -0.9200439L595.32 -0.9200439L595.32 -0.9200439L595.32 841L595.32 841L0 841z" /></clipPath><clipPath id="2"><path id="" clip-rule="evenodd" transform="matrix(1 0 0 1 0 0)" d="M543.8412 701.8071L545.8773 701.8071L545.8773 701.8071L545.8773 711.5278L545.8773 711.5278L543.8412 711.5278z" /></clipPath><clipPath id="3"><path id="" clip-rule="evenodd" transform="matrix(1 0 0 1 0 0)" d="M34.56 707.6799L544.32 707.6799L544.32 707.6799L544.32 709.48L544.32 709.48L34.56 709.48z" /></clipPath><clipPath id="4"><path id="" clip-rule="evenodd" transform="matrix(1 0 0 1 0 0)" d="M34.56 391.48L544.32 391.48L544.32 391.48L544.32 393.64L544.32 393.64L34.56 393.64z" /></clipPath><clipPath id="5"><path id="" clip-rule="evenodd" transform="matrix(1 0 0 1 0 0)" d="M34.56 170.4399L544.32 170.4399L544.32 170.4399L544.32 173.3199L544.32 173.3199L34.56 173.3199z" /></clipPath><clipPath id="6"><path id="" clip-rule="evenodd" transform="matrix(1 0 0 1 0 0)" d="M448.2 71.07996L546 71.07996L546 71.07996L546 168.8799L546 168.8799L448.2 168.8799z" /></clipPath></defs><g transform="matrix(1.333333 0 0 1.333333 0 0)"><g clip-path="url(#1)"><path id="1" transform="matrix(1 0 0 -1 0 841)" d="M34.44 610.92L542.4 610.92" stroke="#000000" stroke-width="0.96" fill="none" /><g clip-path="url(#2)"></g><g clip-path="url(#3)"><g transform="matrix(0.72 0 0 0.6 34.56 707.6799)"><g transform="matrix(1 0 0 1 0 0)"><image x="0" y="0" xlink:href="img_01.png" width="708" height="3" /></g></g></g><g clip-path="url(#4)"><g transform="matrix(0.72 0 0 0.72 34.56 391.48)"><g transform="matrix(1 0 0 1 0 0)"><image x="0" y="0" xlink:href="img_02.png" width="708" height="3" /></g></g></g><g clip-path="url(#5)"><g transform="matrix(0.72 0 0 0.72 34.56 170.44)"><g transform="matrix(1 0 0 1 0 0)"><image x="0" y="0" xlink:href="img_03.png" width="708" height="4" /></g></g></g><g clip-path="url(#6)"><g transform="matrix(0.1624585 0 0 0.1624585 448.2 71.08002)"><g transform="matrix(1 0 0 1 0 0)"><image x="0" y="0" xlink:href="img_04.png" width="602" height="602" /></g></g></g></g></g></svg>